<?xml version="1.0" encoding="UTF-8" standalone="no"?>
<svg
   id="Layer_1"
   data-name="Layer 1"
   viewBox="0 0 625317.78 95508.465"
   version="1.1"
   width="625317.81"
   height="95508.469"
   xmlns="http://www.w3.org/2000/svg"
   xmlns:svg="http://www.w3.org/2000/svg">
  <defs
     id="defs1">
    <style
       id="style1">
      .cls-1 {
        fill: #fff;
      }

      .cls-2 {
        fill: #0b53a1;
      }
    </style>
  </defs>
  <g
     id="g2"
     transform="translate(-725096.28,-2522.9655)">
    <path
       class="cls-2"
       d="m 304.64,178.94 v -59.13 h 49.79 l 1.66,0.07 1.59,0.15 0.72,0.07 0.72,0.15 0.65,0.07 0.65,0.15 0.58,0.22 0.65,0.22 0.51,0.22 0.58,0.22 0.43,0.29 0.5,0.29 0.43,0.29 0.43,0.37 0.36,0.37 0.29,0.29 0.36,0.44 0.29,0.44 0.29,0.44 0.22,0.51 0.29,0.51 0.21,0.51 0.14,0.59 0.14,0.51 0.22,0.66 0.07,0.66 0.07,0.66 0.07,0.66 v 0.66 l 0.07,0.81 v 16.27 l -0.07,0.81 v 0.66 l -0.07,0.66 -0.07,0.66 -0.07,0.66 -0.22,0.66 -0.14,0.51 -0.14,0.58 -0.21,0.51 -0.29,0.51 -0.22,0.51 -0.29,0.44 -0.29,0.37 -0.36,0.44 -0.29,0.44 -0.36,0.29 -0.43,0.36 -0.43,0.29 -0.43,0.29 -0.51,0.22 -0.58,0.29 -0.51,0.22 -0.65,0.15 -0.58,0.22 -0.65,0.15 -0.65,0.15 -0.72,0.15 -0.72,0.07 -1.59,0.07 -1.66,0.07 h -36.49 v 19.93 h -13.3 z m 43.78,-48.87 h -30.49 v 18.83 h 30.49 l 0.8,-0.07 0.87,-0.07 0.65,-0.07 0.65,-0.07 0.58,-0.15 0.51,-0.22 0.43,-0.22 0.36,-0.22 0.29,-0.22 0.29,-0.36 0.22,-0.37 0.14,-0.44 0.14,-0.51 0.14,-0.51 v -0.58 l 0.07,-0.66 v -9.45 l -0.07,-0.59 v -0.59 l -0.14,-0.51 -0.14,-0.44 -0.14,-0.44 -0.22,-0.44 -0.29,-0.29 -0.29,-0.29 -0.36,-0.22 -0.43,-0.22 -0.51,-0.15 -0.58,-0.15 -0.65,-0.15 -0.65,-0.07 -0.87,-0.07 h -0.8 z m -116.4,37.73 h 25.94 l 1.44,-0.07 h 1.23 l 1.16,-0.22 0.87,-0.15 0.43,-0.15 0.29,-0.15 0.36,-0.22 0.29,-0.15 0.22,-0.22 0.22,-0.29 0.22,-0.29 0.21,-0.29 0.15,-0.37 0.07,-0.36 0.07,-0.44 0.14,-0.51 0.07,-1.03 0.14,-1.32 v -23.45 l -0.07,-1.47 -0.07,-1.32 -0.07,-1.03 -0.14,-0.44 -0.07,-0.51 -0.07,-0.37 -0.15,-0.37 -0.21,-0.29 -0.14,-0.29 -0.22,-0.29 -0.29,-0.22 -0.22,-0.15 -0.36,-0.22 -0.36,-0.15 -0.36,-0.15 -0.87,-0.15 -1.08,-0.22 h -1.3 l -1.44,-0.07 h -1.66 l -2.02,-0.07 h -11.13 l -1.44,0.07 h -8.31 l -1.44,-0.07 -2.02,0.07 h -1.66 l -1.52,0.07 -1.3,0.07 -1.01,0.15 -0.94,0.15 -0.43,0.15 -0.29,0.15 -0.29,0.22 -0.29,0.22 -0.21,0.22 -0.22,0.29 -0.22,0.22 -0.14,0.37 -0.07,0.37 -0.22,0.44 v 0.37 l -0.14,0.51 -0.07,1.1 -0.07,1.17 v 26.23 l 0.07,1.03 0.07,0.51 0.07,0.44 0.07,0.36 0.14,0.37 0.14,0.29 0.22,0.29 0.14,0.29 0.22,0.22 0.29,0.15 0.36,0.22 0.29,0.15 0.36,0.15 0.94,0.15 1.08,0.22 h 1.3 l 1.52,0.07 h 3.83 z m -24.71,-33.92 v -1.03 l 0.07,-0.95 v -0.88 l 0.07,-0.88 0.07,-0.88 0.14,-0.73 0.22,-0.81 0.14,-0.66 0.14,-0.66 0.29,-0.66 0.22,-0.59 0.29,-0.59 0.29,-0.44 0.29,-0.51 0.36,-0.44 0.36,-0.44 0.36,-0.29 0.51,-0.37 0.43,-0.29 0.51,-0.29 0.58,-0.22 0.58,-0.29 0.65,-0.22 0.72,-0.15 0.72,-0.22 0.87,-0.15 0.8,-0.15 0.79,-0.07 1.95,-0.15 1.95,-0.07 h 42.92 l 2.02,0.07 1.88,0.15 0.87,0.07 0.87,0.15 0.72,0.15 0.72,0.22 0.72,0.15 0.65,0.22 0.58,0.29 0.58,0.22 0.58,0.29 0.5,0.29 0.36,0.37 0.43,0.29 0.36,0.44 0.29,0.44 0.36,0.51 0.29,0.44 0.29,0.59 0.22,0.59 0.22,0.66 0.22,0.66 0.14,0.66 0.14,0.81 0.14,0.73 0.14,0.88 0.14,1.76 v 35.02 l -0.14,1.76 -0.14,0.81 -0.14,0.88 -0.14,0.73 -0.14,0.73 -0.22,0.66 -0.22,0.59 -0.22,0.58 -0.29,0.59 -0.29,0.51 -0.36,0.44 -0.29,0.44 -0.36,0.36 -0.43,0.37 -0.36,0.3 -0.5,0.29 -0.58,0.29 -0.58,0.29 -0.58,0.22 -0.65,0.22 -0.72,0.22 -0.72,0.22 -0.72,0.07 -0.87,0.15 -0.87,0.15 -1.88,0.15 h -46.89 l -1.95,-0.15 -0.79,-0.15 -0.8,-0.15 -0.87,-0.07 -0.72,-0.22 -0.72,-0.22 -0.65,-0.22 -0.58,-0.22 -0.58,-0.29 -0.51,-0.29 -0.43,-0.29 -0.51,-0.3 -0.36,-0.37 -0.36,-0.36 -0.36,-0.44 -0.29,-0.44 -0.29,-0.51 -0.29,-0.59 -0.22,-0.58 -0.29,-0.59 -0.14,-0.66 -0.14,-0.73 -0.22,-0.73 -0.14,-0.88 -0.07,-0.81 -0.07,-0.81 v -0.95 l -0.07,-0.95 z m -71.54,45.06 v -43.09 l 0.07,-1.03 v -0.88 l 0.14,-0.95 0.14,-0.88 0.14,-0.88 0.22,-0.88 0.22,-0.73 0.29,-0.73 0.29,-0.81 0.36,-0.66 0.36,-0.66 0.43,-0.66 0.43,-0.66 0.51,-0.51 0.51,-0.59 0.51,-0.51 0.51,-0.51 0.65,-0.44 0.58,-0.44 0.65,-0.37 0.65,-0.37 0.65,-0.29 0.72,-0.29 0.72,-0.29 0.72,-0.22 0.72,-0.22 0.79,-0.15 0.8,-0.15 0.8,-0.15 0.87,-0.07 h 0.79 l 0.94,-0.07 h 42.78 v 10.41 h -34.54 l -2.17,0.15 -1.81,0.15 -0.79,0.15 -0.72,0.15 -0.65,0.15 -0.65,0.22 -0.58,0.22 -0.51,0.29 -0.43,0.29 -0.36,0.37 -0.36,0.37 -0.36,0.44 -0.29,0.44 -0.22,0.51 -0.22,0.59 -0.22,0.59 -0.07,0.73 -0.14,0.66 -0.14,1.61 -0.14,1.9 v 4.54 -2.12 h 37.86 v 10.77 h -37.86 v 25.57 h -13.58 z m -40.32,0 v -59.13 h 13.58 v 59.13 z"
       id="path1" />
    <polygon
       class="cls-2"
       points="515.27,63.75 512.66,65.51 510.21,67.41 507.89,69.32 505.73,71.3 503.71,73.35 501.83,75.48 500.09,77.67 498.43,79.87 496.91,82.14 495.54,84.56 494.24,87.05 493.08,89.55 492,92.18 491.06,94.97 490.27,97.75 489.54,100.68 488.82,103.69 488.24,106.76 487.81,110.06 487.37,113.36 487.08,116.8 486.87,120.39 486.65,124.06 486.58,127.87 486.58,131.75 404.93,131.75 403.48,127.72 401.53,123.76 399.08,119.81 396.19,115.92 392.79,112.19 389.1,108.45 384.99,104.79 380.51,101.27 375.74,97.83 370.61,94.53 365.19,91.23 359.55,88.08 353.63,85.07 347.48,82.14 341.2,79.36 334.69,76.72 328.05,74.16 321.26,71.74 314.32,69.39 307.38,67.27 300.3,65.29 293.22,63.46 286.14,61.85 279.06,60.31 272.05,58.99 265.04,57.74 258.1,56.79 251.31,55.91 244.59,55.32 238.02,54.89 231.66,54.52 225.44,54.52 219.3,54.52 213.16,54.67 207.02,54.89 200.8,55.1 194.59,55.47 188.37,55.91 182.16,56.5 176.02,57.16 169.8,57.89 163.74,58.84 157.59,59.87 151.52,61.11 145.53,62.51 139.6,64.04 133.68,65.8 127.9,67.63 122.19,69.76 116.48,72.1 110.99,74.67 105.57,77.45 100.22,80.46 95.02,83.68 89.96,87.2 85.05,90.94 80.21,95.04 75.58,99.29 71.1,103.91 66.77,108.89 62.65,114.09 58.67,119.66 54.92,125.6 51.3,131.75 0,131.75 4.26,123.47 8.82,115.48 13.51,107.86 18.43,100.46 23.56,93.35 28.9,86.54 34.47,80.02 40.32,73.72 46.39,67.78 52.68,61.99 59.25,56.57 66.12,51.44 73.12,46.46 80.5,41.84 88.15,37.44 96.1,33.34 104.27,29.46 112.79,25.79 121.54,22.5 130.64,19.35 140.11,16.49 149.86,13.78 159.91,11.43 170.24,9.23 181.01,7.33 192.06,5.57 203.48,4.1 215.18,2.86 227.39,1.83 239.82,1.03 252.68,0.37 265.91,0 265.91,18.39 272.7,19.2 279.35,20.01 285.99,21.03 292.57,21.98 299.07,23.16 305.43,24.33 311.79,25.65 318,27.11 324.22,28.58 330.36,30.26 336.36,32.1 342.28,34 348.13,36.05 353.99,38.18 359.7,40.6 365.33,43.09 370.9,45.72 376.32,48.58 381.73,51.59 387.08,54.74 392.29,58.18 397.41,61.7 402.54,65.44 407.46,69.47 412.37,73.64 417.21,78.04 421.91,82.66 426.53,87.57 431.09,92.62 435.57,97.97 439.97,103.54 444.24,109.4 445.68,104.35 447.13,99.29 448.64,94.45 450.09,89.55 451.68,84.86 453.34,80.16 455,75.55 456.74,71.08 458.54,66.76 460.42,62.43 462.37,58.26 464.47,54.23 466.71,50.27 468.95,46.46 471.4,42.72 473.86,39.2 476.61,35.69 479.43,32.39 482.32,29.24 485.5,26.31 488.75,23.38 492.22,20.66 495.9,18.17 499.66,15.76 503.71,13.56 507.89,11.51 512.37,9.6 517,7.99 521.91,6.45 526.97,5.13 532.39,4.03 537.88,3 537.88,52.1 534.2,53.64 530.58,55.25 527.19,56.86 524.01,58.47 520.97,60.23 518.01,61.99 "
       id="polygon1" />
    <polygon
       class="cls-2"
       points="515.27,236.61 512.66,234.78 510.21,232.95 507.89,230.97 505.73,228.99 503.71,227.01 501.83,224.89 500.09,222.69 498.43,220.42 496.91,218.15 495.54,215.8 494.24,213.31 493.08,210.74 492,208.11 491.06,205.39 490.27,202.54 489.54,199.61 488.82,196.6 488.24,193.52 487.81,190.3 487.37,187 487.08,183.56 486.87,179.97 486.65,176.3 486.58,172.49 486.58,168.54 404.93,168.54 403.48,172.64 401.53,176.6 399.08,180.63 396.19,184.51 392.79,188.32 389.1,192.13 384.99,195.8 380.51,199.46 375.74,202.98 370.61,206.35 365.19,209.72 359.55,212.94 353.63,216.09 347.48,219.17 341.2,222.03 334.69,224.89 328.05,227.52 321.26,230.01 314.32,232.43 307.38,234.63 300.3,236.76 293.22,238.66 286.14,240.42 279.06,242.03 272.05,243.5 265.04,244.74 258.1,245.84 251.31,246.65 244.59,247.38 238.02,247.82 231.66,248.19 225.44,248.26 219.3,248.19 213.16,248.04 207.02,247.82 200.8,247.53 194.59,247.09 188.37,246.58 182.16,245.99 176.02,245.18 169.8,244.38 163.74,243.35 157.59,242.18 151.52,240.86 145.53,239.39 139.6,237.78 133.68,235.88 127.9,233.83 122.19,231.63 116.48,229.14 110.99,226.5 105.57,223.71 100.22,220.57 95.02,217.19 89.96,213.6 85.05,209.72 80.21,205.61 75.58,201.22 71.1,196.53 66.77,191.55 62.65,186.27 58.67,180.7 54.92,174.84 51.3,168.54 0,168.54 3.9,177.11 8.09,185.32 12.5,193.16 17.2,200.78 22.11,208.03 27.31,214.92 32.8,221.59 38.51,227.82 44.51,233.9 50.8,239.61 57.37,245.04 64.24,250.24 71.32,255.08 78.76,259.7 86.49,264.02 94.44,268.12 102.75,271.93 111.42,275.45 120.38,278.74 129.56,281.75 139.09,284.53 149,287.1 159.18,289.44 169.73,291.49 180.5,293.4 191.7,295.01 203.19,296.4 215.04,297.58 227.25,298.6 239.75,299.33 252.68,299.92 265.91,300.36 265.91,281.97 272.7,281.16 279.35,280.28 285.99,279.33 292.57,278.3 299.07,277.21 305.43,275.96 311.79,274.64 318,273.25 324.22,271.71 330.36,270.02 336.36,268.27 342.28,266.36 348.13,264.31 353.99,262.11 359.7,259.7 365.33,257.28 370.9,254.64 376.32,251.78 381.73,248.7 387.08,245.55 392.29,242.18 397.41,238.59 402.54,234.85 407.46,230.82 412.37,226.72 417.21,222.25 421.91,217.63 426.53,212.79 431.09,207.67 435.57,202.39 439.97,196.75 444.24,190.96 445.68,195.94 447.13,201 448.64,205.91 450.09,210.74 451.68,215.51 453.34,220.2 455,224.74 456.74,229.21 458.54,233.61 460.42,237.93 462.37,242.03 464.47,246.14 466.71,250.09 468.95,253.9 471.4,257.57 473.86,261.16 476.61,264.6 479.43,267.9 482.32,271.05 485.5,274.06 488.75,276.91 492.22,279.62 495.9,282.19 499.66,284.53 503.71,286.8 507.89,288.78 512.37,290.69 517,292.45 521.91,293.91 526.97,295.23 532.39,296.33 537.88,297.28 537.88,248.26 534.2,246.65 530.58,245.04 527.19,243.42 524.01,241.81 520.97,240.13 518.01,238.37 "
       id="polygon2" />
  </g>
  <g
     id="g4"
     transform="translate(-725105.94,-2540.8362)">
    <path
       class="cls-1"
       d="m 929.31,196.56 v -59.13 h 49.79 l 1.66,0.07 1.59,0.15 0.72,0.07 0.72,0.15 0.65,0.07 0.65,0.15 0.58,0.22 0.65,0.22 0.51,0.22 0.58,0.22 0.43,0.29 0.5,0.29 0.43,0.29 0.43,0.37 0.36,0.37 0.29,0.29 0.36,0.44 0.29,0.44 0.29,0.44 0.22,0.51 0.29,0.51 0.21,0.51 0.14,0.59 0.14,0.51 0.22,0.66 0.07,0.66 0.07,0.66 0.07,0.66 v 0.66 l 0.07,0.81 v 16.27 l -0.07,0.81 v 0.66 l -0.07,0.66 -0.07,0.66 -0.07,0.66 -0.22,0.66 -0.14,0.51 -0.14,0.58 -0.21,0.51 -0.29,0.51 -0.22,0.51 -0.29,0.44 -0.29,0.37 -0.36,0.44 -0.29,0.44 -0.36,0.29 -0.43,0.36 -0.43,0.29 -0.43,0.29 -0.51,0.22 -0.58,0.29 -0.51,0.22 -0.65,0.15 -0.58,0.22 -0.65,0.15 -0.65,0.15 -0.72,0.15 -0.72,0.07 -1.59,0.07 -1.66,0.07 H 942.6 v 19.93 h -13.3 z m 43.79,-48.87 h -30.49 v 18.83 h 30.49 l 0.8,-0.07 0.87,-0.07 0.65,-0.07 0.65,-0.07 0.58,-0.15 0.51,-0.22 0.43,-0.22 0.36,-0.22 0.29,-0.22 0.29,-0.36 0.22,-0.37 0.14,-0.44 0.14,-0.51 0.14,-0.51 v -0.58 l 0.07,-0.66 v -9.45 l -0.07,-0.59 v -0.59 l -0.14,-0.51 -0.14,-0.44 -0.14,-0.44 -0.22,-0.44 -0.29,-0.29 -0.29,-0.29 -0.36,-0.22 -0.43,-0.22 -0.51,-0.15 -0.58,-0.15 -0.65,-0.15 -0.65,-0.07 -0.87,-0.07 h -0.8 z m -116.41,37.74 h 25.94 l 1.44,-0.07 h 1.23 l 1.16,-0.22 0.87,-0.15 0.43,-0.15 0.29,-0.15 0.36,-0.22 0.29,-0.15 0.22,-0.22 0.22,-0.29 0.22,-0.29 0.21,-0.29 0.15,-0.37 0.07,-0.36 0.07,-0.44 0.14,-0.51 0.07,-1.03 0.14,-1.32 v -23.45 l -0.07,-1.47 -0.07,-1.32 -0.07,-1.03 -0.14,-0.44 -0.07,-0.51 -0.07,-0.37 -0.15,-0.37 -0.21,-0.29 -0.14,-0.29 -0.22,-0.29 -0.29,-0.22 -0.22,-0.15 -0.36,-0.22 -0.36,-0.15 -0.36,-0.15 -0.87,-0.15 -1.08,-0.22 h -1.3 l -1.44,-0.07 h -1.66 l -2.02,-0.07 h -11.13 l -1.44,0.07 h -8.31 l -1.44,-0.07 -2.02,0.07 h -1.66 l -1.52,0.07 -1.3,0.07 -1.01,0.15 -0.94,0.15 -0.43,0.15 -0.29,0.15 -0.29,0.22 -0.29,0.22 -0.21,0.22 -0.22,0.29 -0.22,0.22 -0.14,0.37 -0.07,0.37 -0.22,0.44 v 0.37 l -0.14,0.51 -0.07,1.1 -0.07,1.17 v 26.23 l 0.07,1.03 0.07,0.51 0.07,0.44 0.07,0.36 0.14,0.37 0.14,0.29 0.22,0.29 0.14,0.29 0.22,0.22 0.29,0.15 0.36,0.22 0.29,0.15 0.36,0.15 0.94,0.15 1.08,0.22 h 1.3 l 1.52,0.07 h 3.83 z M 831.98,151.5 v -1.03 l 0.07,-0.95 v -0.88 l 0.07,-0.88 0.07,-0.88 0.14,-0.73 0.22,-0.81 0.14,-0.66 0.14,-0.66 0.29,-0.66 0.22,-0.59 0.29,-0.59 0.29,-0.44 0.29,-0.51 0.36,-0.44 0.36,-0.44 0.36,-0.29 0.51,-0.37 0.43,-0.29 0.51,-0.29 0.58,-0.22 0.58,-0.29 0.65,-0.22 0.72,-0.15 0.72,-0.22 0.87,-0.15 0.8,-0.15 0.79,-0.07 1.95,-0.15 1.95,-0.07 h 42.92 l 2.02,0.07 1.88,0.15 0.87,0.07 0.87,0.15 0.72,0.15 0.72,0.22 0.72,0.15 0.65,0.22 0.58,0.29 0.58,0.22 0.58,0.29 0.5,0.29 0.36,0.37 0.43,0.29 0.36,0.44 0.29,0.44 0.36,0.51 0.29,0.44 0.29,0.59 0.22,0.59 0.22,0.66 0.22,0.66 0.14,0.66 0.14,0.81 0.14,0.73 0.14,0.88 0.14,1.76 v 35.02 l -0.14,1.76 -0.14,0.81 -0.14,0.88 -0.14,0.73 -0.14,0.73 -0.22,0.66 -0.22,0.59 -0.22,0.58 -0.29,0.59 -0.29,0.51 -0.36,0.44 -0.29,0.44 -0.36,0.36 -0.43,0.37 -0.36,0.3 -0.5,0.29 -0.58,0.29 -0.58,0.29 -0.58,0.22 -0.65,0.22 -0.72,0.22 -0.72,0.22 -0.72,0.07 -0.87,0.15 -0.87,0.15 -1.88,0.15 H 844.4 l -1.95,-0.15 -0.79,-0.15 -0.8,-0.15 -0.87,-0.07 -0.72,-0.22 -0.72,-0.22 -0.65,-0.22 -0.58,-0.22 -0.58,-0.29 -0.51,-0.29 -0.43,-0.29 -0.51,-0.3 -0.36,-0.37 -0.36,-0.36 -0.36,-0.44 -0.29,-0.44 -0.29,-0.51 -0.29,-0.59 -0.22,-0.58 -0.29,-0.59 -0.14,-0.66 -0.14,-0.73 -0.22,-0.73 -0.14,-0.88 -0.07,-0.81 -0.07,-0.81 v -0.95 l -0.07,-0.95 V 151.5 Z m -71.53,45.06 v -43.09 l 0.07,-1.03 v -0.88 l 0.14,-0.95 0.14,-0.88 0.14,-0.88 0.22,-0.88 0.22,-0.73 0.29,-0.73 0.29,-0.81 0.36,-0.66 0.36,-0.66 0.43,-0.66 0.43,-0.66 0.51,-0.51 0.51,-0.59 0.51,-0.51 0.51,-0.51 0.65,-0.44 0.58,-0.44 0.65,-0.37 0.65,-0.37 0.65,-0.29 0.72,-0.29 0.72,-0.29 0.72,-0.22 0.72,-0.22 0.79,-0.15 0.8,-0.15 0.8,-0.15 0.87,-0.07 h 0.79 l 0.94,-0.07 h 42.78 v 10.41 h -34.54 l -2.17,0.15 -1.81,0.15 -0.79,0.15 -0.72,0.15 -0.65,0.15 -0.65,0.22 -0.58,0.22 -0.51,0.29 -0.43,0.29 -0.36,0.37 -0.36,0.37 -0.36,0.44 -0.29,0.44 -0.22,0.51 -0.22,0.59 -0.22,0.59 -0.07,0.73 -0.14,0.66 -0.14,1.61 -0.14,1.9 v 4.54 -2.12 H 811.9 V 171 h -37.86 v 25.57 h -13.58 z m -40.32,0 v -59.13 h 13.58 v 59.13 z"
       id="path2" />
    <polygon
       class="cls-1"
       points="1142.69,79.62 1139.94,81.38 1137.34,83.13 1134.88,85.04 1132.57,86.94 1130.4,88.92 1128.38,90.97 1126.5,93.1 1124.77,95.3 1123.11,97.5 1121.59,99.77 1120.22,102.19 1118.92,104.68 1117.76,107.17 1116.68,109.81 1115.74,112.59 1114.94,115.38 1114.22,118.31 1113.5,121.31 1112.92,124.39 1112.48,127.69 1112.05,130.98 1111.76,134.43 1111.54,138.02 1111.33,141.68 1111.26,145.49 1111.26,149.38 1029.61,149.38 1028.16,145.35 1026.21,141.39 1023.75,137.43 1020.86,133.55 1017.47,129.81 1013.78,126.07 1009.66,122.41 1005.18,118.89 1000.41,115.45 995.28,112.15 989.86,108.85 984.23,105.7 978.3,102.7 972.16,99.77 965.88,96.98 959.37,94.35 952.72,91.78 945.93,89.36 939,87.02 932.06,84.89 924.98,82.92 917.9,81.08 910.81,79.47 903.73,77.93 896.72,76.61 889.72,75.37 882.78,74.41 875.99,73.53 869.27,72.95 862.69,72.51 856.33,72.14 850.12,72.14 843.98,72.14 837.83,72.29 831.69,72.51 825.48,72.73 819.27,73.1 813.05,73.53 806.84,74.12 800.7,74.78 794.48,75.51 788.41,76.47 782.27,77.49 776.2,78.74 770.2,80.13 764.28,81.67 758.35,83.43 752.57,85.26 746.86,87.38 741.16,89.73 735.66,92.29 730.25,95.08 724.9,98.08 719.7,101.31 714.64,104.82 709.72,108.56 704.88,112.66 700.26,116.91 695.78,121.53 691.44,126.51 687.32,131.72 683.35,137.29 679.59,143.22 675.98,149.38 624.68,149.38 628.94,141.1 633.49,133.11 638.19,125.49 643.1,118.09 648.23,110.98 653.58,104.16 659.14,97.64 665,91.34 671.07,85.41 677.35,79.62 683.93,74.19 690.79,69.06 697.8,64.08 705.17,59.47 712.83,55.07 720.78,50.97 728.94,47.08 737.47,43.42 746.21,40.12 755.32,36.97 764.78,34.11 774.54,31.4 784.58,29.06 794.92,26.86 805.68,24.95 816.74,23.19 828.15,21.73 839.86,20.48 852.07,19.46 864.5,18.65 877.36,17.99 890.58,17.62 890.58,36.02 897.38,36.82 904.02,37.63 910.67,38.66 917.25,39.61 923.75,40.78 930.11,41.95 936.47,43.27 942.68,44.74 948.9,46.2 955.04,47.89 961.03,49.72 966.96,51.63 972.81,53.68 978.67,55.8 984.37,58.22 990.01,60.71 995.57,63.35 1000.99,66.21 1006.41,69.21 1011.76,72.36 1016.96,75.81 1022.09,79.32 1027.22,83.06 1032.13,87.09 1037.05,91.27 1041.89,95.67 1046.59,100.28 1051.21,105.19 1055.76,110.25 1060.24,115.59 1064.65,121.16 1068.91,127.03 1070.36,121.97 1071.81,116.91 1073.32,112.08 1074.77,107.17 1076.36,102.48 1078.02,97.79 1079.68,93.17 1081.41,88.7 1083.22,84.38 1085.1,80.06 1087.05,75.88 1089.15,71.85 1091.39,67.89 1093.62,64.08 1096.08,60.34 1098.54,56.83 1101.29,53.31 1104.1,50.01 1106.99,46.86 1110.17,43.93 1113.42,41 1116.89,38.29 1120.58,35.8 1124.34,33.38 1128.38,31.18 1132.57,29.13 1137.05,27.22 1141.68,25.61 1146.59,24.07 1151.65,22.75 1157.07,21.66 1162.56,20.63 1162.56,69.72 1158.87,71.26 1155.26,72.88 1151.86,74.49 1148.69,76.1 1145.65,77.86 "
       id="polygon3" />
    <polygon
       class="cls-1"
       points="1142.69,255.99 1139.94,254.23 1137.34,252.4 1134.88,250.57 1132.57,248.59 1130.4,246.62 1128.38,244.64 1126.5,242.51 1124.77,240.31 1123.11,238.04 1121.59,235.77 1120.22,233.43 1118.92,230.93 1117.76,228.37 1116.68,225.73 1115.74,223.02 1114.94,220.16 1114.22,217.23 1113.5,214.23 1112.92,211.15 1112.48,207.93 1112.05,204.63 1111.76,201.18 1111.54,197.59 1111.33,193.93 1111.26,190.12 1111.26,186.16 1029.61,186.16 1028.16,190.27 1026.21,194.22 1023.75,198.25 1020.86,202.13 1017.47,205.94 1013.78,209.75 1009.66,213.42 1005.18,217.08 1000.41,220.6 995.28,223.97 989.86,227.34 984.23,230.56 978.3,233.72 972.16,236.8 965.88,239.65 959.37,242.51 952.72,245.15 945.93,247.64 939,250.06 932.06,252.26 924.98,254.38 917.9,256.29 910.81,258.05 903.73,259.66 896.72,261.12 889.72,262.37 882.78,263.47 875.99,264.28 869.27,265.01 862.69,265.45 856.33,265.81 850.12,265.88 843.98,265.81 837.83,265.66 831.69,265.45 825.48,265.15 819.27,264.71 813.05,264.2 806.84,263.62 800.7,262.81 794.48,262 788.41,260.98 782.27,259.81 776.2,258.48 770.2,257.02 764.28,255.41 758.35,253.5 752.57,251.45 746.86,249.25 741.16,246.76 735.66,244.12 730.25,241.34 724.9,238.19 719.7,234.82 714.64,231.23 709.72,227.34 704.88,223.24 700.26,218.84 695.78,214.15 691.44,209.17 687.32,203.9 683.35,198.32 679.59,192.46 675.98,186.16 624.68,186.16 628.58,194.74 632.77,202.94 637.18,210.78 641.87,218.4 646.79,225.66 651.99,232.54 657.48,239.21 663.19,245.44 669.19,251.52 675.47,257.24 682.05,262.66 688.91,267.86 695.99,272.7 703.44,277.32 711.17,281.64 719.12,285.74 727.43,289.56 736.1,293.07 745.06,296.37 754.23,299.37 763.77,302.16 773.67,304.72 783.86,307.07 794.41,309.12 805.18,311.02 816.38,312.63 827.86,314.03 839.71,315.2 851.93,316.23 864.43,316.96 877.36,317.55 890.58,317.98 890.58,299.59 897.38,298.79 904.02,297.91 910.67,296.96 917.25,295.93 923.75,294.83 930.11,293.58 936.47,292.26 942.68,290.87 948.9,289.33 955.04,287.65 961.03,285.89 966.96,283.99 972.81,281.93 978.67,279.73 984.37,277.32 990.01,274.9 995.57,272.26 1000.99,269.4 1006.41,266.32 1011.76,263.18 1016.96,259.81 1022.09,256.21 1027.22,252.48 1032.13,248.45 1037.05,244.34 1041.89,239.87 1046.59,235.26 1051.21,230.42 1055.76,225.29 1060.24,220.01 1064.65,214.37 1068.91,208.58 1070.36,213.56 1071.81,218.62 1073.32,223.53 1074.77,228.37 1076.36,233.13 1078.02,237.82 1079.68,242.36 1081.41,246.84 1083.22,251.23 1085.1,255.55 1087.05,259.66 1089.15,263.76 1091.39,267.72 1093.62,271.53 1096.08,275.19 1098.54,278.78 1101.29,282.23 1104.1,285.52 1106.99,288.67 1110.17,291.68 1113.42,294.54 1116.89,297.25 1120.58,299.81 1124.34,302.16 1128.38,304.43 1132.57,306.41 1137.05,308.31 1141.68,310.07 1146.59,311.54 1151.65,312.85 1157.07,313.96 1162.56,314.91 1162.56,265.88 1158.87,264.28 1155.26,262.66 1151.86,261.05 1148.69,259.44 1145.65,257.75 "
       id="polygon4" />
  </g>
</svg>
